<?xml version="1.0" encoding="utf-8"?>
<!-- Generator: Adobe Illustrator 26.3.1, SVG Export Plug-In . SVG Version: 6.00 Build 0)  -->
<svg version="1.1" id="Layer_1" xmlns="http://www.w3.org/2000/svg" xmlns:xlink="http://www.w3.org/1999/xlink" x="0px" y="0px"
	 viewBox="0 0 384 384" style="enable-background:new 0 0 384 384;" xml:space="preserve">
<g>
	<path d="M384,119c-1.9,4.9-5.6,7.7-10.6,9.1c-4.7,1.4-9.1,3.3-13.8,4.8c-2,0.6-2.7,1.5-2.7,3.7c0.1,34.8,0.1,69.5,0,104.3
		c0,2.1,0.8,3,2.6,3.8c12.9,6.2,19.9,16.6,19.9,30.9c0,14.2-7,24.4-19.7,30.6c-2.2,1.1-2.8,2.2-2.8,4.5c0.1,12.8,0.1,25.5,0,38.3
		c0,7.6-4.6,12.7-11.3,12.7c-6.7,0-11.2-5.2-11.2-12.8c0-13.5,0-27,0-40.5c0-0.2-0.1-0.5-0.2-0.9c-10.1-4-17.3-11.1-20.7-21.6
		c-5.3-16.3,2.3-33.6,18.1-41c1.9-0.9,2.9-1.7,2.9-4c-0.1-32.1-0.1-64.3-0.1-96.4c0-0.6-0.1-1.2-0.1-2.3c-4.7,1.6-9.3,3.2-13.8,4.8
		c-3.8,1.3-7.4,3-11.3,4c-3.6,0.9-4.4,2.9-4.4,6.4c0.2,21.8-0.1,43.5,0.2,65.3c0.1,8.8-3.4,15.4-10.2,20.6
		c-9.6,7.3-20.8,11.4-32.2,14.7c-30.6,8.8-61.9,11-93.5,8.5c-20.8-1.7-41.2-5.2-60.6-13c-7.3-2.9-14.3-7.1-20.8-11.5
		c-6.2-4.2-8.9-10.7-8.8-18.5c0.2-22.3,0-44.5,0.1-66.8c0-3.2-1.1-4.5-4-5.5c-21.6-7.5-43-15.4-64.6-22.8C5.7,126.4,1.9,124,0,119
		c0-1.8,0-3.5,0-5.3c1.9-5,5.7-7.4,10.6-9.1C69,84.2,127.3,63.6,185.6,42.9c4.4-1.6,8.4-1.6,12.7,0c58.3,20.7,116.7,41.3,175.1,61.8
		c4.9,1.7,8.7,4.2,10.6,9.1C384,115.5,384,117.3,384,119z M45.3,116.3c1.8,0.8,3.1,1.3,4.3,1.8c46.3,16.5,92.6,32.9,138.9,49.3
		c2.1,0.7,4.9,0.7,7.1,0c42.2-14.9,84.4-29.9,126.6-44.9c5.3-1.9,10.6-3.8,16.5-6c-1.2-0.6-1.8-0.9-2.3-1.1
		C289.2,98.8,242,82.1,194.8,65.6c-1.7-0.6-4-0.5-5.7,0.1C154.5,77.8,120,90,85.4,102.2C72.2,106.8,59.1,111.5,45.3,116.3z
		 M102,160.7c-0.2,0.9-0.4,1.1-0.4,1.4c0,20-0.1,40,0.1,60c0,1.4,1.3,3.4,2.6,4c6.7,3.2,13.4,6.9,20.5,9
		c39.1,11.7,78.7,12.4,118.6,4.3c12.4-2.5,24.5-6.1,35.5-12.5c2.6-1.5,3.7-3.4,3.7-6.6c-0.2-18.4-0.1-36.8-0.1-55.1
		c0-1.4-0.1-2.8-0.2-4.6c-1.9,0.7-3.2,1.1-4.5,1.6c-26.7,9.5-53.4,18.9-80,28.5c-3.8,1.4-7.4,1.4-11.3,0c-26.7-9.6-53.4-19-80-28.5
		C105,161.6,103.6,161.2,102,160.7z M357,275.7c0.1-6.2-4.8-11.2-11-11.4c-6.4-0.2-11.5,4.8-11.6,11.1c-0.1,6.3,5.2,11.5,11.4,11.5
		C351.8,286.9,357,281.8,357,275.7z"/>
</g>
</svg>
